<?xml version="1.0" encoding="UTF-8"?>
<svg id="Layer_1" xmlns="http://www.w3.org/2000/svg" version="1.1" viewBox="0 0 32 32">
  <!-- Generator: Adobe Illustrator 29.8.2, SVG Export Plug-In . SVG Version: 2.1.1 Build 3)  -->
  <defs>
    <style>
      .st0 {
        fill: #fff;
      }

      .st1 {
        fill: #2563eb;
      }
    </style>
  </defs>
  <path class="st1" d="M29.54,24.27l1.62-3.93c-1.71-1.54-2.9-2.26-2.9-4.07h0c0-1.81,1.19-2.55,2.89-4.09l-1.64-3.92c-2.27.12-3.65.45-4.93-.83h0c-1.28-1.28-.96-2.64-.84-4.93l-3.93-1.62c-1.53,1.7-2.26,2.9-4.07,2.9h0c-1.81,0-2.54-1.19-4.09-2.89l-3.92,1.64c.12,2.28.45,3.65-.83,4.93-1.28,1.28-2.65.96-4.93.85l-1.62,3.93c1.69,1.52,2.9,2.26,2.9,4.07,0,1.82-1.22,2.58-2.89,4.09l1.63,3.93c2.27-.12,3.65-.45,4.93.83h0c1.28,1.28.96,2.64.84,4.93l3.93,1.62c1.53-1.7,2.26-2.9,4.08-2.9h0c1.8,0,2.53,1.18,4.07,2.89l3.92-1.64c-.12-2.27-.45-3.65.82-4.93,1.28-1.28,2.65-.96,4.93-.85Z"/>
  <polygon class="st0" points="17.84 11.77 15.7 17.75 13.54 11.77 10.42 11.77 14.05 21.55 17.34 21.55 20.96 11.77 17.84 11.77"/>
</svg>